<svg xmlns="http://www.w3.org/2000/svg" viewBox="0 0 554 554" fill="currentColor" fill-rule="evenodd" role="img" aria-label="Matt Cory"><g transform="translate(0.00,87.50)"><path d="M538.59,362.95 C525.15,350.19 526.21,354.49 517.47,276.99 C513.34,240.42 508.86,201.72 507.50,191.00 C497.96,115.70 492.00,60.76 492.00,48.20 C492.00,40.83 492.03,40.75 496.89,34.64 C499.58,31.26 506.33,24.09 511.89,18.70 C517.45,13.31 522.00,8.69 522.00,8.45 C522.00,7.39 449.80,8.04 447.68,9.12 C445.01,10.49 426.39,28.67 351.00,103.58 C292.73,161.47 280.39,173.00 276.64,173.00 C275.41,173.00 265.62,164.06 250.59,149.23 C237.34,136.16 222.90,122.10 218.50,117.98 C214.10,113.87 187.38,88.00 159.13,60.50 C130.87,33.00 106.80,9.95 105.63,9.29 C103.12,7.86 35.00,7.44 35.00,8.85 C35.00,9.32 37.67,12.02 40.93,14.86 C44.19,17.69 50.59,24.85 55.15,30.75 L63.43,41.48 L63.18,47.99 C63.04,51.57 62.27,59.67 61.47,66.00 C60.67,72.33 57.97,95.95 55.47,118.50 C50.12,166.73 40.54,244.76 35.01,285.00 C32.86,300.68 30.17,320.60 29.03,329.27 C26.17,351.13 22.93,358.40 13.10,365.08 C10.32,366.96 8.04,368.84 8.03,369.25 C8.01,369.66 25.83,370.00 47.63,370.00 L87.25,370.00 L83.21,365.61 C77.99,359.95 73.96,353.53 72.47,348.50 C70.76,342.73 72.20,324.94 77.59,285.01 C80.08,266.58 83.69,239.35 85.61,224.50 C87.53,209.65 91.31,182.43 94.01,164.00 C96.70,145.57 100.52,118.59 102.50,104.04 C104.47,89.49 106.28,77.39 106.52,77.15 C106.76,76.91 111.35,80.71 116.72,85.61 C128.05,95.93 232.56,198.53 234.36,201.10 C235.02,202.05 240.05,206.97 245.53,212.04 C251.01,217.10 255.89,222.05 256.36,223.04 C257.03,224.42 256.05,226.28 252.07,231.16 C249.23,234.65 245.01,241.29 242.70,245.92 C236.71,257.94 236.85,261.76 243.90,277.50 C246.85,284.10 255.43,304.27 262.97,322.32 C270.51,340.37 277.09,355.15 277.59,355.18 C278.63,355.23 285.18,340.52 301.74,301.00 C314.63,270.22 317.00,263.87 317.00,260.04 C317.00,252.53 309.46,237.80 300.84,228.45 L296.64,223.88 L315.57,204.86 C325.98,194.39 342.15,178.96 351.50,170.56 C368.11,155.65 385.49,139.22 425.89,100.25 C436.87,89.66 446.31,81.00 446.87,81.00 C447.42,81.00 448.17,83.14 448.53,85.75 C448.88,88.36 450.26,95.90 451.58,102.50 C452.90,109.10 455.99,130.25 458.45,149.50 C460.91,168.75 464.05,192.38 465.42,202.00 C466.80,211.62 469.06,228.95 470.44,240.50 C471.82,252.05 473.85,267.35 474.95,274.50 C477.70,292.40 483.00,335.50 483.00,339.94 C483.00,345.09 480.43,354.41 476.94,361.90 C475.31,365.42 474.24,368.57 474.56,368.90 C475.08,369.41 544.88,370.81 545.84,370.33 C546.02,370.24 542.76,366.92 538.59,362.95 Z M187.44,270.90 C194.97,269.44 204.44,264.31 209.41,259.00 C214.56,253.48 219.39,244.43 221.51,236.30 C228.48,209.53 210.20,180.84 183.64,176.89 C153.34,172.39 128.00,194.08 128.00,224.53 C128.00,244.40 139.84,261.84 158.26,269.10 C167.19,272.63 175.79,273.16 187.44,270.90 Z M394.76,270.57 C402.33,268.56 407.89,264.97 414.51,257.82 C425.18,246.29 429.41,232.95 427.22,217.75 C423.15,189.59 397.34,171.32 369.80,177.12 C348.92,181.51 333.05,201.80 333.01,224.14 C332.97,245.00 348.47,264.87 369.10,270.42 C376.06,272.29 388.06,272.36 394.76,270.57 Z"/></g></svg>